<mxfile host="app.diagrams.net" modified="2023-07-04T15:13:35.841Z" agent="Mozilla/5.0 (Windows NT 10.0; Win64; x64) AppleWebKit/537.36 (KHTML, like Gecko) Chrome/114.0.0.0 Safari/537.36" version="21.5.2" etag="czgq3koLAW-Lm-M7qE85" type="github">
  <diagram name="Page-1" id="EbDk1x_Ic7ChjRt5d0Hb">
    <mxGraphModel>
      <root>
        <mxCell id="0" />
        <mxCell id="1" parent="0" />
      </root>
    </mxGraphModel>
  </diagram>
</mxfile>
